# xmcd CD database file
#
# Track frame offsets:
#	150
#	11467
#	23680
#	34293
#	61504
#	80351
#	94874
#	108588
#	127576
#
# Disc length: 1916 seconds
#
# Revision: 0
# Processed by: cddbd v1.5.1PL2 Copyright (c) Steve Scherf et al.
# Submitted via: CDex 1.51
#
DISCID=5c077a09
DTITLE=Acoustic Line - Groove.Taste.Fun
DYEAR=2005
DGENRE=Jazz
TTITLE0=Chattanooga Choo Choo
TTITLE1=What a wonderful World
TTITLE2=Puttin´on the Ritz
TTITLE3=Stormy Monday Blues
TTITLE4=Don´t know why
TTITLE5=Take Five
TTITLE6=Cant´t find my way home
TTITLE7=Besame Mucho
TTITLE8=Unchain my heart
EXTD=YEAR: 2005
EXTT0=
EXTT1=
EXTT2=
EXTT3=
EXTT4=
EXTT5=
EXTT6=
EXTT7=
EXTT8=
PLAYORDER=
